<?xml version="1.0" encoding="utf-8"?>
<!-- Generator: Adobe Illustrator 23.0.1, SVG Export Plug-In . SVG Version: 6.00 Build 0)  -->
<svg version="1.1" id="Layer_3" xmlns="http://www.w3.org/2000/svg" xmlns:xlink="http://www.w3.org/1999/xlink" x="0px" y="0px"
	 viewBox="0 0 500 60" style="enable-background:new 0 0 500 60;" xml:space="preserve">
<style type="text/css">
	.st0{fill:none;stroke:#FFFFFF;stroke-width:0.7;stroke-miterlimit:10;}
	.st1{fill:#FFFFFF;}
</style>
<g>
	<g>
		<polyline class="st0" points="5,40 5,31.38 40.91,31.38 40.91,40 		"/>
		<polyline class="st0" points="56.71,40 56.71,31.38 92.63,31.38 92.63,40 		"/>
		<line class="st0" x1="22.96" y1="22.04" x2="22.96" y2="30.66"/>
		<polyline class="st0" points="22.96,19.17 22.96,11.99 74.67,11.99 74.67,19.17 		"/>
		<line class="st0" x1="74.67" y1="22.04" x2="74.67" y2="32.1"/>
		<line class="st0" x1="48.81" y1="11.99" x2="48.81" y2="1.93"/>
	</g>
	<g>
		<polyline class="st0" points="151.52,40 151.52,31.38 187.44,31.38 187.44,40 		"/>
		<polyline class="st0" points="203.24,40 203.24,31.38 239.15,31.38 239.15,40 		"/>
		<line class="st0" x1="169.48" y1="22.04" x2="169.48" y2="30.66"/>
		<polyline class="st0" points="169.48,19.17 169.48,11.99 221.19,11.99 221.19,19.17 		"/>
		<line class="st0" x1="221.19" y1="22.04" x2="221.19" y2="32.1"/>
		<line class="st0" x1="195.34" y1="11.99" x2="195.34" y2="1.93"/>
	</g>
	<g>
		<g>
			<polyline class="st0" points="254.95,40 254.95,31.38 290.86,31.38 290.86,40 			"/>
			<line class="st0" x1="272.91" y1="22.04" x2="272.91" y2="32.1"/>
		</g>
		<line class="st0" x1="272.91" y1="1.93" x2="272.91" y2="19.17"/>
	</g>
	<g>
		<polyline class="st0" points="341.14,40 341.14,31.38 377.05,31.38 377.05,40 		"/>
		<polyline class="st0" points="392.85,40 392.85,31.38 428.77,31.38 428.77,40 		"/>
		<line class="st0" x1="359.1" y1="22.04" x2="359.1" y2="30.66"/>
		<polyline class="st0" points="359.1,19.17 359.1,11.99 410.81,11.99 410.81,19.17 		"/>
		<line class="st0" x1="410.81" y1="22.04" x2="410.81" y2="32.1"/>
		<line class="st0" x1="384.95" y1="11.99" x2="384.95" y2="1.93"/>
	</g>
	<g>
		<g>
			<polyline class="st0" points="444.57,40 444.57,31.38 480.48,31.38 480.48,40 			"/>
			<line class="st0" x1="462.52" y1="22.04" x2="462.52" y2="32.1"/>
		</g>
		<line class="st0" x1="462.52" y1="1.93" x2="462.52" y2="19.17"/>
	</g>
	<g>
		<line class="st0" x1="109.15" y1="1.93" x2="109.15" y2="19.17"/>
		<line class="st0" x1="109.15" y1="22.04" x2="109.15" y2="39.28"/>
	</g>
	<g>
		<line class="st0" x1="497" y1="1.93" x2="497" y2="19.17"/>
		<line class="st0" x1="497" y1="22.04" x2="497" y2="39.28"/>
	</g>
	<g>
		<path class="st1" d="M4.81,48.87c0-0.88,0.15-1.72,0.46-2.53s0.78-1.71,1.42-2.71h1.05c-0.62,1.08-1.07,2.02-1.36,2.82
			c-0.29,0.81-0.44,1.61-0.44,2.42c0,0.81,0.15,1.64,0.45,2.46c0.3,0.83,0.75,1.75,1.36,2.78H6.69C5.44,52.25,4.81,50.5,4.81,48.87z
			"/>
		<path class="st1" d="M9.47,52.36v-0.94c1.01,0.21,1.85,0.31,2.52,0.31c0.53,0,0.92-0.08,1.16-0.23c0.25-0.15,0.37-0.4,0.37-0.75
			v-1.68c0-0.36-0.16-0.6-0.47-0.7c-0.15-0.04-0.28-0.07-0.41-0.08c-0.13-0.01-0.29-0.02-0.49-0.02h-2.5v-4.25h4.86v0.88h-3.69v2.56
			h1.95c0.35,0,0.65,0.04,0.92,0.12c0.27,0.08,0.51,0.22,0.71,0.42c0.22,0.22,0.33,0.5,0.33,0.85v1.92c0,0.3-0.05,0.57-0.16,0.8
			c-0.11,0.23-0.25,0.41-0.44,0.54c-0.16,0.12-0.38,0.22-0.63,0.3c-0.26,0.08-0.51,0.13-0.76,0.14c-0.31,0.02-0.58,0.03-0.81,0.03
			C11.26,52.59,10.43,52.51,9.47,52.36z"/>
		<path class="st1" d="M16.66,48.27h3.61v0.94h-3.61V48.27z"/>
		<path class="st1" d="M22.07,43.36h1.17v9.1h-1.17V43.36z"/>
		<path class="st1" d="M25.29,50.67v-2.48c0-0.76,0.22-1.31,0.66-1.64c0.44-0.33,1.15-0.5,2.13-0.5c0.93,0,1.6,0.16,2.01,0.48
			c0.41,0.32,0.62,0.88,0.62,1.66v1.39h-4.23v0.95c0,0.43,0.15,0.75,0.46,0.94s0.77,0.29,1.4,0.29c0.6,0,1.3-0.1,2.12-0.31v0.9
			c-0.8,0.17-1.56,0.26-2.27,0.26C26.26,52.59,25.29,51.95,25.29,50.67z M29.53,48.81v-0.99c0-0.38-0.12-0.64-0.34-0.79
			c-0.23-0.14-0.62-0.21-1.18-0.21c-0.54,0-0.93,0.07-1.17,0.21c-0.24,0.14-0.36,0.41-0.36,0.79v0.99H29.53z"/>
		<path class="st1" d="M33.3,52.42c-0.32-0.11-0.56-0.31-0.7-0.6c-0.14-0.29-0.21-0.7-0.21-1.24c0-0.48,0.07-0.85,0.2-1.11
			c0.13-0.26,0.36-0.45,0.69-0.57s0.79-0.17,1.38-0.17h1.89v-1c0-0.23-0.05-0.41-0.14-0.54c-0.09-0.12-0.24-0.21-0.46-0.27
			c-0.21-0.05-0.52-0.08-0.93-0.08c-0.65,0-1.37,0.05-2.16,0.16v-0.86c0.86-0.08,1.63-0.12,2.33-0.12c0.73,0,1.27,0.05,1.61,0.16
			s0.58,0.3,0.72,0.57c0.13,0.27,0.19,0.69,0.19,1.25v4.45h-1.13v-0.6c-0.1,0.49-0.73,0.73-1.9,0.73
			C34.08,52.59,33.62,52.53,33.3,52.42z M34.88,51.82c0.42,0,0.78-0.03,1.08-0.09c0.39-0.08,0.58-0.26,0.58-0.55v-1.72h-1.81
			c-0.37,0-0.64,0.03-0.81,0.08s-0.27,0.16-0.32,0.32c-0.05,0.16-0.08,0.41-0.08,0.75c0,0.31,0.03,0.55,0.09,0.72
			s0.17,0.29,0.33,0.36c0.16,0.07,0.39,0.11,0.7,0.11H34.88z"/>
		<path class="st1" d="M40.56,46.93h-1.44v-0.77h1.44v-1.01c0-0.68,0.19-1.18,0.58-1.48s0.97-0.45,1.76-0.45
			c0.29,0,0.65,0.02,1.05,0.07v0.77C43.62,44.02,43.28,44,42.94,44c-0.43,0-0.74,0.08-0.93,0.23c-0.19,0.16-0.28,0.44-0.28,0.84
			v1.09h2.09v0.77h-2.09v5.53h-1.17V46.93z"/>
		<path class="st1" d="M45.88,51.33c0.3-0.83,0.45-1.65,0.45-2.46c0-0.79-0.15-1.58-0.44-2.38c-0.29-0.8-0.75-1.75-1.37-2.86h1.05
			c0.64,1,1.12,1.9,1.42,2.71s0.46,1.65,0.46,2.53c0,1.63-0.63,3.38-1.88,5.24h-1.05C45.13,53.09,45.58,52.16,45.88,51.33z"/>
	</g>
	<g>
		<path class="st1" d="M151.81,48.87c0-0.88,0.15-1.72,0.46-2.53s0.78-1.71,1.42-2.71h1.05c-0.62,1.08-1.07,2.02-1.36,2.82
			c-0.29,0.81-0.44,1.61-0.44,2.42c0,0.81,0.15,1.64,0.45,2.46c0.3,0.83,0.75,1.75,1.36,2.78h-1.05
			C152.44,52.25,151.81,50.5,151.81,48.87z"/>
		<path class="st1" d="M158.18,52.55c-0.23-0.03-0.48-0.08-0.73-0.16c-0.27-0.08-0.48-0.19-0.64-0.34
			c-0.16-0.15-0.29-0.37-0.39-0.64s-0.16-0.6-0.16-0.98v-4.26c0-0.39,0.06-0.73,0.19-1.03c0.13-0.29,0.29-0.53,0.49-0.7
			c0.17-0.15,0.41-0.27,0.7-0.36c0.29-0.09,0.59-0.15,0.88-0.17c0.33-0.02,0.63-0.03,0.9-0.03c0.53,0,1.24,0.04,2.13,0.12v0.88
			c-0.89-0.11-1.66-0.17-2.3-0.17c-0.49,0-0.85,0.04-1.1,0.1c-0.25,0.07-0.44,0.21-0.55,0.41c-0.12,0.2-0.18,0.51-0.18,0.92v1.33
			h1.91c0.43,0,0.76,0.01,0.97,0.03s0.45,0.05,0.69,0.1c0.24,0.05,0.42,0.14,0.54,0.26c0.12,0.12,0.22,0.29,0.31,0.52
			c0.08,0.22,0.12,0.49,0.12,0.82v1.23c0,0.94-0.29,1.54-0.88,1.82c-0.29,0.13-0.57,0.22-0.86,0.27s-0.66,0.07-1.12,0.07
			C158.72,52.59,158.41,52.58,158.18,52.55z M160.16,51.72c0.23-0.07,0.39-0.19,0.49-0.38s0.15-0.47,0.15-0.85v-1.26
			c0-0.29-0.04-0.5-0.13-0.64c-0.09-0.14-0.25-0.24-0.48-0.29s-0.59-0.08-1.08-0.08h-1.69v2.28c0,0.38,0.05,0.67,0.16,0.85
			s0.27,0.31,0.51,0.38c0.23,0.06,0.58,0.1,1.04,0.1C159.59,51.82,159.93,51.79,160.16,51.72z"/>
		<path class="st1" d="M163.66,48.27h3.61v0.94h-3.61V48.27z"/>
		<path class="st1" d="M169.07,43.36h1.17v9.1h-1.17V43.36z"/>
		<path class="st1" d="M172.29,50.67v-2.48c0-0.76,0.22-1.31,0.66-1.64c0.44-0.33,1.15-0.5,2.13-0.5c0.93,0,1.6,0.16,2.01,0.48
			c0.41,0.32,0.62,0.88,0.62,1.66v1.39h-4.23v0.95c0,0.43,0.15,0.75,0.46,0.94s0.77,0.29,1.4,0.29c0.6,0,1.3-0.1,2.12-0.31v0.9
			c-0.8,0.17-1.56,0.26-2.27,0.26C173.26,52.59,172.29,51.95,172.29,50.67z M176.53,48.81v-0.99c0-0.38-0.12-0.64-0.34-0.79
			c-0.23-0.14-0.62-0.21-1.18-0.21c-0.54,0-0.93,0.07-1.17,0.21c-0.24,0.14-0.36,0.41-0.36,0.79v0.99H176.53z"/>
		<path class="st1" d="M180.3,52.42c-0.32-0.11-0.56-0.31-0.7-0.6c-0.14-0.29-0.21-0.7-0.21-1.24c0-0.48,0.07-0.85,0.2-1.11
			c0.13-0.26,0.36-0.45,0.69-0.57s0.79-0.17,1.38-0.17h1.89v-1c0-0.23-0.05-0.41-0.14-0.54c-0.09-0.12-0.24-0.21-0.46-0.27
			c-0.21-0.05-0.52-0.08-0.93-0.08c-0.65,0-1.37,0.05-2.16,0.16v-0.86c0.86-0.08,1.63-0.12,2.33-0.12c0.73,0,1.27,0.05,1.61,0.16
			s0.58,0.3,0.72,0.57c0.13,0.27,0.19,0.69,0.19,1.25v4.45h-1.13v-0.6c-0.1,0.49-0.73,0.73-1.9,0.73
			C181.08,52.59,180.62,52.53,180.3,52.42z M181.88,51.82c0.42,0,0.78-0.03,1.08-0.09c0.39-0.08,0.58-0.26,0.58-0.55v-1.72h-1.81
			c-0.37,0-0.64,0.03-0.81,0.08s-0.27,0.16-0.32,0.32c-0.05,0.16-0.08,0.41-0.08,0.75c0,0.31,0.03,0.55,0.09,0.72
			s0.17,0.29,0.33,0.36c0.16,0.07,0.39,0.11,0.7,0.11H181.88z"/>
		<path class="st1" d="M187.56,46.93h-1.44v-0.77h1.44v-1.01c0-0.68,0.19-1.18,0.58-1.48s0.97-0.45,1.76-0.45
			c0.29,0,0.65,0.02,1.05,0.07v0.77c-0.33-0.04-0.67-0.06-1.01-0.06c-0.43,0-0.74,0.08-0.93,0.23c-0.19,0.16-0.28,0.44-0.28,0.84
			v1.09h2.09v0.77h-2.09v5.53h-1.17V46.93z"/>
		<path class="st1" d="M192.88,51.33c0.3-0.83,0.45-1.65,0.45-2.46c0-0.79-0.15-1.58-0.44-2.38c-0.29-0.8-0.75-1.75-1.37-2.86h1.05
			c0.64,1,1.12,1.9,1.42,2.71s0.46,1.65,0.46,2.53c0,1.63-0.63,3.38-1.88,5.24h-1.05C192.13,53.09,192.58,52.16,192.88,51.33z"/>
	</g>
	<g>
		<path class="st1" d="M340.81,48.87c0-0.88,0.15-1.72,0.46-2.53c0.31-0.81,0.78-1.71,1.42-2.71h1.05
			c-0.62,1.08-1.07,2.02-1.37,2.82s-0.44,1.61-0.44,2.42c0,0.81,0.15,1.64,0.45,2.46c0.3,0.83,0.75,1.75,1.36,2.78h-1.05
			C341.44,52.25,340.81,50.5,340.81,48.87z"/>
		<path class="st1" d="M349.99,44.87h-4.84v-0.84h5.93v0.84l-3.22,7.59h-1.25L349.99,44.87z"/>
		<path class="st1" d="M352.66,48.27h3.61v0.94h-3.61V48.27z"/>
		<path class="st1" d="M358.07,43.36h1.17v9.1h-1.17V43.36z"/>
		<path class="st1" d="M361.29,50.67v-2.48c0-0.76,0.22-1.31,0.66-1.64c0.44-0.33,1.15-0.5,2.13-0.5c0.93,0,1.6,0.16,2.01,0.48
			c0.41,0.32,0.62,0.88,0.62,1.66v1.39h-4.22v0.95c0,0.43,0.15,0.75,0.46,0.94c0.3,0.19,0.77,0.29,1.4,0.29c0.6,0,1.3-0.1,2.12-0.31
			v0.9c-0.8,0.17-1.56,0.26-2.27,0.26C362.26,52.59,361.29,51.95,361.29,50.67z M365.53,48.81v-0.99c0-0.38-0.12-0.64-0.34-0.79
			c-0.23-0.14-0.62-0.21-1.18-0.21c-0.54,0-0.93,0.07-1.17,0.21c-0.24,0.14-0.36,0.41-0.36,0.79v0.99H365.53z"/>
		<path class="st1" d="M369.3,52.42c-0.33-0.11-0.56-0.31-0.7-0.6c-0.14-0.29-0.21-0.7-0.21-1.24c0-0.48,0.07-0.85,0.2-1.11
			c0.13-0.26,0.36-0.45,0.69-0.57s0.79-0.17,1.38-0.17h1.89v-1c0-0.23-0.05-0.41-0.14-0.54c-0.09-0.12-0.24-0.21-0.46-0.27
			c-0.21-0.05-0.52-0.08-0.93-0.08c-0.65,0-1.37,0.05-2.16,0.16v-0.86c0.86-0.08,1.63-0.12,2.33-0.12c0.73,0,1.27,0.05,1.61,0.16
			s0.58,0.3,0.72,0.57c0.13,0.27,0.19,0.69,0.19,1.25v4.45h-1.13v-0.6c-0.1,0.49-0.73,0.73-1.9,0.73
			C370.08,52.59,369.62,52.53,369.3,52.42z M370.88,51.82c0.42,0,0.78-0.03,1.08-0.09c0.39-0.08,0.58-0.26,0.58-0.55v-1.72h-1.81
			c-0.37,0-0.64,0.03-0.81,0.08s-0.27,0.16-0.33,0.32c-0.05,0.16-0.08,0.41-0.08,0.75c0,0.31,0.03,0.55,0.09,0.72
			s0.17,0.29,0.32,0.36c0.16,0.07,0.39,0.11,0.7,0.11H370.88z"/>
		<path class="st1" d="M376.56,46.93h-1.44v-0.77h1.44v-1.01c0-0.68,0.19-1.18,0.58-1.48c0.39-0.3,0.97-0.45,1.76-0.45
			c0.29,0,0.65,0.02,1.05,0.07v0.77c-0.33-0.04-0.67-0.06-1.01-0.06c-0.43,0-0.74,0.08-0.93,0.23c-0.19,0.16-0.28,0.44-0.28,0.84
			v1.09h2.09v0.77h-2.09v5.53h-1.17V46.93z"/>
		<path class="st1" d="M381.88,51.33c0.3-0.83,0.45-1.65,0.45-2.46c0-0.79-0.14-1.58-0.44-2.38c-0.29-0.8-0.75-1.75-1.37-2.86h1.05
			c0.64,1,1.12,1.9,1.42,2.71s0.46,1.65,0.46,2.53c0,1.63-0.63,3.38-1.88,5.24h-1.05C381.13,53.09,381.58,52.16,381.88,51.33z"/>
	</g>
</g>
</svg>
